<?xml version="1.0" encoding="utf-8"?>
<!-- Generator: Adobe Illustrator 24.3.0, SVG Export Plug-In . SVG Version: 6.00 Build 0)  -->
<svg version="1.1" id="Layer_1" xmlns="http://www.w3.org/2000/svg" xmlns:xlink="http://www.w3.org/1999/xlink" x="0px" y="0px"
	 viewBox="0 0 400 400" style="enable-background:new 0 0 400 400;" xml:space="preserve">
<style type="text/css">
	.st0{fill:#4E4E4E;}
</style>
<g id="dashboard-svgrepo-com" transform="translate(0 -42.671)">
	<g id="Group_156" transform="translate(0 42.671)">
		<g id="Group_155" transform="translate(0 0)">
			<path id="Path_18" class="st0" d="M199.58,43.95L199.58,43.95c-49.71-0.07-97.39,19.68-132.51,54.86l0,0l0,0
				c-35.19,35.08-54.96,82.72-54.94,132.41c0,0,0,0.12,0,0.16s0,0.1,0,0.16c-0.03,43.49,15.12,85.62,42.84,119.13
				c2.97,3.59,7.38,5.67,12.04,5.67h265.1c4.66,0,9.07-2.08,12.04-5.67c65.87-79.86,54.53-198-25.33-263.87
				C285.25,59.1,243.09,43.95,199.58,43.95z M324.54,325.11H74.59c-17.12-22.75-27.66-49.77-30.45-78.11h46.14
				c8.63,0,15.62-6.99,15.62-15.62c0-8.63-6.99-15.62-15.62-15.62H44.14c3.03-30.54,15.02-59.49,34.48-83.22l10.48,10.48
				c6.1,6.1,15.99,6.11,22.1,0.01c6.1-6.1,6.11-15.99,0.01-22.1l0,0l-10.48-10.48c23.73-19.46,52.69-31.46,83.22-34.49v46.14
				c0,8.63,6.99,15.62,15.62,15.62s15.62-6.99,15.62-15.62V75.96c30.54,3.03,59.51,15.03,83.24,34.49l-10.48,10.48
				c-6.1,6.1-6.1,15.99,0,22.09c6.1,6.1,15.99,6.1,22.09,0l10.48-10.48c19.46,23.73,31.46,52.7,34.49,83.24h-46.14
				c-8.63,0-15.62,6.99-15.62,15.62c0,8.63,6.99,15.62,15.62,15.62h46.14C352.21,275.35,341.67,302.37,324.54,325.11z"/>
			<path id="Path_19" class="st0" d="M250.33,169.64l-96.3,48.23l48.16,48.16L250.33,169.64z"/>
			<path id="Path_20" class="st0" d="M250.66,275.9H148.49c-9.4,0.01-17.02,7.63-17.02,17.04c0.01,9.4,7.62,17.01,17.02,17.02
				h102.17c9.4-0.01,17.02-7.63,17.02-17.04C267.67,283.52,260.06,275.91,250.66,275.9z"/>
		</g>
	</g>
</g>
</svg>
