<svg id="Layer_1" data-name="Layer 1" xmlns="http://www.w3.org/2000/svg" viewBox="0 0 20.75 24.03"><defs><style>.cls-1{fill:#ba8f00;}</style></defs><path class="cls-1" d="M720.24,194.81c-4.71.85-8.87,1.35-12.64,3.93,0,2-1.36,3.63-2.49,5.39a6.33,6.33,0,0,1-1.49,1.24c-1-.46-2-.83-2.93-1.32a2,2,0,0,1-1-2.69,9.9,9.9,0,0,1,1.57-2.73,14.23,14.23,0,0,1,7-4.2,16.89,16.89,0,0,0,3.85-1.27c.17-.73-.37-.73-.72-.86-2-.73-4.06-1.33-6-2.21a18.31,18.31,0,0,1-4-2.54c-1.85-1.53-1.9-3.22-.28-5a9.09,9.09,0,0,1,1.82-1.24c.95.52,1.79,1,2.61,1.44.17.1.26.32.49.61-.32.36-.67.73-1,1.12-1.08,1.33-1.13,2.19.13,3.3a11.92,11.92,0,0,0,3.24,2c1.77.73,3.64,1.19,5.45,1.82s3.4,1.24,5.08,1.93c.33.13.56.54,1.26,1.25" transform="translate(-699.49 -181.34)"/></svg>
