<?xml version="1.0" encoding="utf-8"?>
<!-- Generator: Adobe Illustrator 26.0.2, SVG Export Plug-In . SVG Version: 6.00 Build 0)  -->
<svg version="1.1" id="Layer_1" xmlns="http://www.w3.org/2000/svg" xmlns:xlink="http://www.w3.org/1999/xlink" x="0px" y="0px"
	 viewBox="0 0 32 32" style="enable-background:new 0 0 32 32;" xml:space="preserve">
<style type="text/css">
	.st0{fill:#010101;}
</style>
<g>
	<g>
		<path class="st0" d="M28.2,23.5H3.7c-0.5,0-0.9-0.4-0.9-0.9s0.4-0.9,0.9-0.9h24.5c0.5,0,0.9,0.4,0.9,0.9S28.7,23.5,28.2,23.5z"/>
	</g>
	<g>
		<path class="st0" d="M20.6,16.9H3.7c-0.5,0-0.9-0.4-0.9-0.9c0-0.5,0.4-0.9,0.9-0.9h16.9c0.5,0,0.9,0.4,0.9,0.9
			C21.5,16.5,21.1,16.9,20.6,16.9z"/>
	</g>
	<g>
		<path class="st0" d="M28.2,10.2H3.7c-0.5,0-0.9-0.4-0.9-0.9c0-0.5,0.4-0.9,0.9-0.9h24.5c0.5,0,0.9,0.4,0.9,0.9
			C29.1,9.9,28.7,10.2,28.2,10.2z"/>
	</g>
	<g>
		<g>
			<path class="st0" d="M26.3,14.1l2.7,2.7c0.2,0.2,0.2,0.4,0,0.6c-0.2,0.2-0.4,0.2-0.6,0L26,15l-2.4,2.4c-0.2,0.2-0.4,0.2-0.6,0
				c-0.2-0.2-0.2-0.4,0-0.6l2.7-2.7C25.8,14,25.9,14,26,14C26.1,14,26.3,14,26.3,14.1z"/>
		</g>
	</g>
</g>
</svg>
