<svg id="Layer_1" data-name="Layer 1" xmlns="http://www.w3.org/2000/svg" viewBox="0 0 22.27 23.76"><defs><style>.cls-1{fill:#010101;}</style></defs><path class="cls-1" d="M26.28,15.56H12.52a.85.85,0,0,0-.85.85.86.86,0,0,0,.85.86H26.28a.86.86,0,0,0,.85-.86A.85.85,0,0,0,26.28,15.56Z" transform="translate(-4.87 -4.54)"/><path class="cls-1" d="M26.28,21.33H14.37a.86.86,0,1,0,0,1.71H26.28a.85.85,0,0,0,.85-.85A.86.86,0,0,0,26.28,21.33Z" transform="translate(-4.87 -4.54)"/><path class="cls-1" d="M14.37,11.49H26.28a.85.85,0,1,0,0-1.7H14.37a.85.85,0,1,0,0,1.7Z" transform="translate(-4.87 -4.54)"/><path class="cls-1" d="M11.54,11.77a1.27,1.27,0,0,0,1.11-.64,1.29,1.29,0,0,0,0-1.29L10,5.18a1.29,1.29,0,0,0-2.23,0L5,9.84a1.29,1.29,0,0,0,0,1.29,1.27,1.27,0,0,0,1.11.64H8v12.6H7.5a.78.78,0,0,0-.69.4.8.8,0,0,0,0,.79L8.16,27.9a.8.8,0,0,0,1.37,0l1.35-2.34a.8.8,0,0,0,0-.79.78.78,0,0,0-.69-.4H9.7V11.77Z" transform="translate(-4.87 -4.54)"/></svg>