<svg id="Isolation_Mode" data-name="Isolation Mode" xmlns="http://www.w3.org/2000/svg" viewBox="0 0 22.27 23.76"><defs><style>.cls-1{fill:#010101;}</style></defs><path class="cls-1" d="M26.28,15.56H12.52a.85.85,0,0,0-.85.85.86.86,0,0,0,.85.86H26.28a.86.86,0,0,0,.85-.86A.85.85,0,0,0,26.28,15.56Z" transform="translate(-4.87 -4.54)"/><path class="cls-1" d="M26.28,21.33H14.37a.86.86,0,1,0,0,1.71H26.28a.85.85,0,0,0,.85-.85A.86.86,0,0,0,26.28,21.33Z" transform="translate(-4.87 -4.54)"/><path class="cls-1" d="M14.37,11.49H26.28a.85.85,0,1,0,0-1.7H14.37a.85.85,0,1,0,0,1.7Z" transform="translate(-4.87 -4.54)"/><path class="cls-1" d="M11.54,21.06A1.28,1.28,0,0,1,12.65,23L10,27.65a1.29,1.29,0,0,1-2.23,0L5,23a1.28,1.28,0,0,1,1.11-1.92H8V8.46H7.5a.78.78,0,0,1-.69-.4.8.8,0,0,1,0-.79L8.16,4.93a.8.8,0,0,1,1.37,0l1.35,2.34a.8.8,0,0,1,0,.79.78.78,0,0,1-.69.4H9.7v12.6Z" transform="translate(-4.87 -4.54)"/></svg>